<svg width="36" height="32" viewBox="0 0 36 32" fill="none" xmlns="http://www.w3.org/2000/svg">
<mask id="path-1-outside-1_3613_1585" maskUnits="userSpaceOnUse" x="0" y="0" width="36" height="32" fill="black">
<rect fill="white" width="36" height="32"/>
<path d="M17.9326 27.7949L20.9658 30.3232L20.1768 31L17.8662 27.8848L15.5557 31L14.7666 30.3232L17.7988 27.7949L17.583 27.5039L17.8662 27.7393L18.1494 27.5039L17.9326 27.7949ZM11.835 22.9961C15.1726 23.8982 16.9847 26.3033 17.4736 27.3936C17.4112 27.3815 17.3492 27.3675 17.2871 27.3535C15.0296 29.0598 11.5378 29.2763 10.3076 28.6396C12.7006 27.0574 15.1753 26.9484 16.6006 27.1592C14.173 26.3356 12.1377 24.2065 11.835 22.9961ZM23.9014 22.9961C23.5987 24.2066 21.5627 26.3357 19.1348 27.1592C20.5599 26.9483 23.0345 27.0572 25.4277 28.6396C24.1971 29.2762 20.7046 29.0603 18.4473 27.3535C18.3858 27.3674 18.3245 27.3816 18.2627 27.3936C18.7518 26.3032 20.5637 23.8981 23.9014 22.9961ZM21.7363 26.3281C22.489 25.9392 24.9666 25.3276 26.8848 26.5264C26.0999 27.1275 23.5264 27.2621 21.7363 26.3281ZM8.06445 26.4863C10.1192 25.2022 12.7735 25.8579 13.5791 26.2744C11.6619 27.2749 8.90515 27.1302 8.06445 26.4863ZM3.25977 23.9541C4.27258 23.5438 7.82595 22.8659 10.4492 25.1768C9.7581 25.62 5.15529 25.624 3.25977 23.9541ZM25.2803 25.1738C27.9033 22.8631 31.4555 23.5399 32.4688 23.9502C30.5734 25.6197 25.9724 25.6168 25.2803 25.1738ZM7.77051 19.0449C8.74805 19.5338 11.6042 21.7517 11.6045 25.2471C10.8147 25.0209 7.77051 21.5707 7.77051 19.0449ZM27.959 19.0449C27.959 21.5705 24.9151 25.0205 24.125 25.2471C24.1253 21.7516 26.9816 19.5336 27.959 19.0449ZM3.25977 19.8936C4.35247 19.8826 7.90702 20.5534 9.50195 23.6641C8.69627 23.8233 4.41214 22.1413 3.25977 19.8936ZM32.4688 19.8936C31.3165 22.1412 27.0336 23.823 26.2275 23.6641C27.8223 20.5538 31.3757 19.8827 32.4688 19.8936ZM5.75098 15.5518C6.55585 16.5355 7.2815 18.2631 6.33789 20.4287C5.90963 20.075 5.06945 17.1165 5.75098 15.5518ZM30.0918 15.8057C30.7282 17.2662 29.9436 20.0291 29.5439 20.3584C28.6632 18.3371 29.3406 16.7238 30.0918 15.8057ZM1 15.7412C2.58333 15.9903 4.71744 17.0058 5.64941 19.835C4.94988 19.8625 1.78887 18.4815 1 15.7412ZM34.7256 15.7412C33.9366 18.4817 30.7753 19.8628 30.0762 19.835C31.0081 17.0059 33.1423 15.9904 34.7256 15.7412ZM1.90723 11.8467C3.33753 12.5701 5.05661 14.192 5.07422 17.1709C4.40001 16.9822 1.81611 14.6967 1.90723 11.8467ZM33.8184 11.8467C33.9095 14.697 31.3253 16.9826 30.6514 17.1709C30.669 14.192 32.3881 12.5701 33.8184 11.8467ZM7.15625 9.57227C7.50063 11.1375 7.33136 13.4947 5.03516 15.3926C4.75493 14.7507 4.89117 11.3043 7.15625 9.57227ZM28.5762 9.57227C30.8413 11.3044 30.9775 14.7509 30.6973 15.3926C28.4012 13.4947 28.2318 11.1375 28.5762 9.57227ZM2.01074 7.54297C3.27293 8.53072 4.83259 10.2555 4.27051 13.1807C3.64614 12.865 1.36681 10.3211 2.01074 7.54297ZM33.7119 7.54297C34.3559 10.3211 32.0765 12.865 31.4521 13.1807C30.8901 10.2555 32.4497 8.53072 33.7119 7.54297ZM30.8164 5.83691C32.2161 7.62152 31.4313 10.2214 31.0879 10.6592C30.0367 8.81279 30.4852 6.92956 30.8164 5.83691ZM4.91992 5.81152C5.25237 6.90837 5.70183 8.79874 4.64648 10.6523C4.30156 10.2118 3.51499 7.60255 4.91992 5.81152ZM10.3086 5.5166C9.67549 6.80502 8.47181 8.92144 5.9209 9.7168C5.98083 9.01976 7.49059 5.95601 10.3086 5.5166ZM25.4277 5.5166C28.2455 5.95619 29.7555 9.01979 29.8154 9.7168C27.2644 8.92149 26.0609 6.80506 25.4277 5.5166ZM7.14355 1.46094C7.88197 2.69936 7.88112 5.51855 6.18945 7.66113C5.78619 7.08835 5.27191 3.61199 7.14355 1.46094ZM28.583 1.46094C30.4547 3.61214 29.9394 7.08871 29.5361 7.66113C27.8445 5.51853 27.8446 2.69933 28.583 1.46094ZM11.1465 1C11.2411 2.43863 9.9592 4.9495 7.47852 6.08887C7.37931 5.39623 8.50091 2.0652 11.1465 1ZM24.583 1C27.2285 2.06521 28.3501 5.39616 28.251 6.08887C25.7702 4.94953 24.4884 2.43867 24.583 1Z"/>
</mask>
<path d="M17.9326 27.7949L17.6118 27.556L17.3856 27.8597L17.6765 28.1022L17.9326 27.7949ZM20.9658 30.3232L21.2262 30.6269L21.5853 30.3189L21.2219 30.016L20.9658 30.3232ZM20.1768 31L19.8555 31.2383L20.1113 31.5831L20.4372 31.3036L20.1768 31ZM17.8662 27.8848L18.1875 27.6465L17.8662 27.2133L17.5449 27.6465L17.8662 27.8848ZM15.5557 31L15.2953 31.3036L15.6212 31.5831L15.8769 31.2383L15.5557 31ZM14.7666 30.3232L14.5104 30.016L14.1472 30.3189L14.5062 30.6269L14.7666 30.3232ZM17.7988 27.7949L18.055 28.1021L18.3452 27.8602L18.1201 27.5567L17.7988 27.7949ZM17.583 27.5039L17.8387 27.1963L17.2617 27.7422L17.583 27.5039ZM17.8662 27.7393L17.6106 28.0469L17.8662 28.2594L18.1219 28.0469L17.8662 27.7393ZM18.1494 27.5039L18.4702 27.7429L17.8938 27.1963L18.1494 27.5039ZM11.835 22.9961L11.9393 22.6099L11.2816 22.4322L11.4469 23.0931L11.835 22.9961ZM17.4736 27.3936L17.3976 27.7863L18.1538 27.9326L17.8386 27.2299L17.4736 27.3936ZM17.2871 27.3535L17.3751 26.9633L17.194 26.9225L17.0459 27.0344L17.2871 27.3535ZM10.3076 28.6396L10.087 28.306L9.51869 28.6818L10.1238 28.9949L10.3076 28.6396ZM16.6006 27.1592L16.5421 27.5549L16.7291 26.7804L16.6006 27.1592ZM23.9014 22.9961L24.2894 23.0931L24.4547 22.4322L23.797 22.6099L23.9014 22.9961ZM19.1348 27.1592L19.0063 26.7804L19.1933 27.5549L19.1348 27.1592ZM25.4277 28.6396L25.6115 28.9949L26.2168 28.6818L25.6483 28.306L25.4277 28.6396ZM18.4473 27.3535L18.6885 27.0345L18.5405 26.9225L18.3594 26.9633L18.4473 27.3535ZM18.2627 27.3936L17.8977 27.2299L17.5825 27.9327L18.3387 27.7863L18.2627 27.3936ZM21.7363 26.3281L21.5527 25.9728L20.8683 26.3264L21.5513 26.6828L21.7363 26.3281ZM26.8848 26.5264L27.128 26.8439L27.5862 26.493L27.0968 26.1872L26.8848 26.5264ZM8.06445 26.4863L7.85247 26.1471L7.36305 26.453L7.82124 26.8039L8.06445 26.4863ZM13.5791 26.2744L13.7642 26.629L14.4469 26.2728L13.7628 25.9191L13.5791 26.2744ZM3.25977 23.9541L3.10958 23.5834L2.50967 23.8264L2.99535 24.2542L3.25977 23.9541ZM10.4492 25.1768L10.6651 25.5135L11.1116 25.2272L10.7136 24.8766L10.4492 25.1768ZM25.2803 25.1738L25.0159 24.8737L24.6176 25.2246L25.0646 25.5107L25.2803 25.1738ZM32.4688 23.9502L32.7331 24.2504L33.219 23.8224L32.6189 23.5794L32.4688 23.9502ZM7.77051 19.0449L7.94941 18.6872L7.37051 18.3977V19.0449H7.77051ZM11.6045 25.2471L11.4944 25.6316L12.0045 25.7777L12.0045 25.247L11.6045 25.2471ZM27.959 19.0449H28.359V18.3977L27.7801 18.6871L27.959 19.0449ZM24.125 25.2471L23.725 25.247L23.725 25.7779L24.2353 25.6316L24.125 25.2471ZM3.25977 19.8936L3.25575 19.4936L2.60854 19.5001L2.90382 20.076L3.25977 19.8936ZM9.50195 23.6641L9.57951 24.0565L10.0999 23.9536L9.85789 23.4816L9.50195 23.6641ZM32.4688 19.8936L32.8247 20.076L33.12 19.5L32.4727 19.4936L32.4688 19.8936ZM26.2275 23.6641L25.8716 23.4816L25.6295 23.9538L26.1501 24.0565L26.2275 23.6641ZM5.75098 15.5518L6.06056 15.2985L5.6458 14.7915L5.38425 15.392L5.75098 15.5518ZM6.33789 20.4287L6.08315 20.7371L6.49251 21.0752L6.70459 20.5885L6.33789 20.4287ZM30.0918 15.8057L30.4585 15.6459L30.1969 15.0456L29.7822 15.5524L30.0918 15.8057ZM29.5439 20.3584L29.1772 20.5182L29.3891 21.0043L29.7983 20.6671L29.5439 20.3584ZM1 15.7412L1.06216 15.3461L0.441912 15.2485L0.615611 15.8519L1 15.7412ZM5.64941 19.835L5.66517 20.2346L6.19534 20.2138L6.02933 19.7098L5.64941 19.835ZM34.7256 15.7412L35.11 15.8519L35.2837 15.2485L34.6634 15.3461L34.7256 15.7412ZM30.0762 19.835L29.6963 19.7098L29.5303 20.2135L30.0602 20.2346L30.0762 19.835ZM1.90723 11.8467L2.08775 11.4897L1.52749 11.2064L1.50743 11.8339L1.90723 11.8467ZM5.07422 17.1709L4.96643 17.5561L5.47735 17.6991L5.47421 17.1685L5.07422 17.1709ZM33.8184 11.8467L34.2182 11.8339L34.1981 11.2064L33.6378 11.4897L33.8184 11.8467ZM30.6514 17.1709L30.2514 17.1685L30.2482 17.6989L30.759 17.5561L30.6514 17.1709ZM7.15625 9.57227L7.54691 9.48632L7.412 8.87316L6.91328 9.25452L7.15625 9.57227ZM5.03516 15.3926L4.66856 15.5526L4.8809 16.039L5.28999 15.7009L5.03516 15.3926ZM28.5762 9.57227L28.8191 9.25452L28.3204 8.87316L28.1855 9.48632L28.5762 9.57227ZM30.6973 15.3926L30.4424 15.7009L30.8514 16.039L31.0638 15.5527L30.6973 15.3926ZM2.01074 7.54297L2.25726 7.22796L1.76283 6.84104L1.62107 7.45265L2.01074 7.54297ZM4.27051 13.1807L4.09001 13.5376L4.56325 13.7769L4.66332 13.2561L4.27051 13.1807ZM33.7119 7.54297L34.1016 7.45265L33.9598 6.84104L33.4654 7.22796L33.7119 7.54297ZM31.4521 13.1807L31.0593 13.2561L31.1594 13.7769L31.6326 13.5376L31.4521 13.1807ZM30.8164 5.83691L31.1311 5.59006L30.6566 4.98505L30.4336 5.72089L30.8164 5.83691ZM31.0879 10.6592L30.7403 10.8571L31.035 11.3747L31.4026 10.9061L31.0879 10.6592ZM4.91992 5.81152L5.30272 5.6955L5.07972 4.95972L4.6052 5.56465L4.91992 5.81152ZM4.64648 10.6523L4.33155 10.899L4.69911 11.3684L4.99409 10.8503L4.64648 10.6523ZM10.3086 5.5166L10.6676 5.69301L11.0067 5.00292L10.247 5.12138L10.3086 5.5166ZM5.9209 9.7168L5.52237 9.68253L5.47135 10.276L6.03996 10.0987L5.9209 9.7168ZM25.4277 5.5166L25.4894 5.12138L24.7296 5.00285L25.0687 5.69301L25.4277 5.5166ZM29.8154 9.7168L29.6964 10.0987L30.265 10.2759L30.214 9.68253L29.8154 9.7168ZM7.14355 1.46094L7.48712 1.25609L7.2043 0.781753L6.84179 1.19837L7.14355 1.46094ZM6.18945 7.66113L5.86238 7.8914L6.17109 8.32989L6.5034 7.909L6.18945 7.66113ZM28.583 1.46094L28.8848 1.19838L28.5223 0.781756L28.2394 1.25608L28.583 1.46094ZM29.5361 7.66113L29.2222 7.909L29.5544 8.32976L29.8631 7.8915L29.5361 7.66113ZM11.1465 1L11.5456 0.973757L11.5094 0.422677L10.9971 0.628947L11.1465 1ZM7.47852 6.08887L7.08256 6.14558L7.15853 6.67601L7.64547 6.45236L7.47852 6.08887ZM24.583 1L24.7324 0.62895L24.2201 0.422669L24.1839 0.973755L24.583 1ZM28.251 6.08887L28.084 6.45237L28.571 6.67601L28.6469 6.14555L28.251 6.08887ZM17.9326 27.7949L17.6765 28.1022L20.7097 30.6305L20.9658 30.3232L21.2219 30.016L18.1887 27.4877L17.9326 27.7949ZM20.9658 30.3232L20.7054 30.0196L19.9163 30.6964L20.1768 31L20.4372 31.3036L21.2262 30.6269L20.9658 30.3232ZM20.1768 31L20.498 30.7617L18.1875 27.6465L17.8662 27.8848L17.5449 28.1231L19.8555 31.2383L20.1768 31ZM17.8662 27.8848L17.5449 27.6465L15.2344 30.7617L15.5557 31L15.8769 31.2383L18.1875 28.1231L17.8662 27.8848ZM15.5557 31L15.8161 30.6964L15.027 30.0196L14.7666 30.3232L14.5062 30.6269L15.2953 31.3036L15.5557 31ZM14.7666 30.3232L15.0228 30.6305L18.055 28.1021L17.7988 27.7949L17.5427 27.4877L14.5104 30.016L14.7666 30.3232ZM17.7988 27.7949L18.1201 27.5567L17.9043 27.2656L17.583 27.5039L17.2617 27.7422L17.4775 28.0332L17.7988 27.7949ZM17.583 27.5039L17.3274 27.8115L17.6106 28.0469L17.8662 27.7393L18.1219 27.4316L17.8387 27.1963L17.583 27.5039ZM17.8662 27.7393L18.1219 28.0469L18.4051 27.8115L18.1494 27.5039L17.8938 27.1963L17.6106 27.4316L17.8662 27.7393ZM18.1494 27.5039L17.8286 27.2649L17.6118 27.556L17.9326 27.7949L18.2534 28.0339L18.4702 27.7429L18.1494 27.5039ZM11.835 22.9961L11.7306 23.3822C14.9341 24.2481 16.6605 26.5579 17.1087 27.5572L17.4736 27.3936L17.8386 27.2299C17.3089 26.0487 15.4112 23.5483 11.9393 22.6099L11.835 22.9961ZM17.4736 27.3936L17.5496 27.0008C17.4942 26.9901 17.438 26.9775 17.3751 26.9633L17.2871 27.3535L17.1991 27.7437C17.2604 27.7575 17.3283 27.7728 17.3976 27.7863L17.4736 27.3936ZM17.2871 27.3535L17.0459 27.0344C15.9852 27.8361 14.6172 28.2981 13.3553 28.4792C12.7266 28.5694 12.1341 28.5884 11.6313 28.5485C11.1215 28.5079 10.7323 28.409 10.4915 28.2844L10.3076 28.6396L10.1238 28.9949C10.498 29.1886 11.0066 29.3013 11.568 29.346C12.1365 29.3911 12.7887 29.3687 13.4689 29.2711C14.8248 29.0765 16.3314 28.5772 17.5283 27.6726L17.2871 27.3535ZM10.3076 28.6396L10.5282 28.9733C12.8212 27.4572 15.1909 27.355 16.5421 27.5549L16.6006 27.1592L16.6591 26.7635C15.1597 26.5417 12.58 26.6576 10.087 28.306L10.3076 28.6396ZM16.6006 27.1592L16.7291 26.7804C15.5783 26.39 14.5099 25.6853 13.6926 24.9291C12.8615 24.1601 12.346 23.3907 12.223 22.899L11.835 22.9961L11.4469 23.0931C11.6267 23.812 12.2802 24.7122 13.1493 25.5163C14.0322 26.3331 15.1952 27.1048 16.4721 27.538L16.6006 27.1592ZM23.9014 22.9961L23.5133 22.8991C23.3904 23.3907 22.8748 24.1602 22.0434 24.9291C21.2259 25.6853 20.1572 26.39 19.0063 26.7804L19.1348 27.1592L19.2632 27.538C20.5403 27.1049 21.7036 26.3333 22.5867 25.5164C23.4559 24.7123 24.1097 23.812 24.2894 23.0931L23.9014 22.9961ZM19.1348 27.1592L19.1933 27.5549C20.5443 27.3549 22.9138 27.457 25.2071 28.9733L25.4277 28.6396L25.6483 28.306C23.1551 26.6575 20.5756 26.5416 19.0762 26.7635L19.1348 27.1592ZM25.4277 28.6396L25.244 28.2844C25.003 28.409 24.6136 28.5079 24.1036 28.5485C23.6007 28.5885 23.0081 28.5696 22.3793 28.4794C21.1171 28.2984 19.7491 27.8363 18.6885 27.0345L18.4473 27.3535L18.206 27.6726C19.4028 28.5775 20.9097 29.0768 22.2657 29.2713C22.9461 29.3689 23.5984 29.3912 24.167 29.346C24.7286 29.3013 25.2372 29.1886 25.6115 28.9949L25.4277 28.6396ZM18.4473 27.3535L18.3594 26.9633C18.2942 26.978 18.2408 26.9904 18.1867 27.0008L18.2627 27.3936L18.3387 27.7863C18.4081 27.7728 18.4774 27.7567 18.5351 27.7437L18.4473 27.3535ZM18.2627 27.3936L18.6277 27.5573C19.076 26.5578 20.8022 24.248 24.0057 23.3822L23.9014 22.9961L23.797 22.6099C20.3251 23.5482 18.4275 26.0486 17.8977 27.2299L18.2627 27.3936ZM21.7363 26.3281L21.9199 26.6835C22.238 26.5192 22.9886 26.2804 23.8951 26.2313C24.7965 26.1824 25.8055 26.3236 26.6728 26.8656L26.8848 26.5264L27.0968 26.1872C26.0459 25.5304 24.857 25.378 23.8518 25.4325C22.8519 25.4867 21.9873 25.7482 21.5527 25.9728L21.7363 26.3281ZM26.8848 26.5264L26.6416 26.2088C26.5128 26.3074 26.2707 26.4123 25.9159 26.4895C25.5698 26.5648 25.1486 26.6067 24.6908 26.6029C23.7705 26.5954 22.746 26.4037 21.9214 25.9735L21.7363 26.3281L21.5513 26.6828C22.5168 27.1865 23.674 27.3946 24.6842 27.4029C25.1916 27.4071 25.6729 27.361 26.0859 27.2712C26.4903 27.1832 26.8643 27.0459 27.128 26.8439L26.8848 26.5264ZM8.06445 26.4863L8.27644 26.8255C9.21199 26.2409 10.2993 26.0894 11.2685 26.1421C12.2429 26.195 13.0509 26.4516 13.3954 26.6297L13.5791 26.2744L13.7628 25.9191C13.3016 25.6807 12.3797 25.4012 11.3119 25.3432C10.2389 25.2849 8.97164 25.4477 7.85247 26.1471L8.06445 26.4863ZM13.5791 26.2744L13.3941 25.9198C12.5059 26.3832 11.4038 26.589 10.4148 26.597C9.92262 26.601 9.46939 26.5559 9.09622 26.4747C8.7144 26.3916 8.45039 26.2781 8.30767 26.1688L8.06445 26.4863L7.82124 26.8039C8.09887 27.0165 8.49471 27.1625 8.92613 27.2564C9.36621 27.3521 9.87962 27.4014 10.4213 27.397C11.5002 27.3882 12.7351 27.166 13.7642 26.629L13.5791 26.2744ZM3.25977 23.9541L3.40995 24.3248C3.86044 24.1423 4.94363 23.8792 6.23032 23.9445C7.50998 24.0094 8.95887 24.397 10.1848 25.4769L10.4492 25.1768L10.7136 24.8766C9.3163 23.6457 7.67688 23.2168 6.27083 23.1455C4.87181 23.0746 3.67191 23.3556 3.10958 23.5834L3.25977 23.9541ZM10.4492 25.1768L10.2333 24.84C10.2129 24.8532 10.1272 24.8904 9.94093 24.9278C9.76751 24.9626 9.54209 24.9908 9.27469 25.0084C8.7406 25.0434 8.0638 25.034 7.34726 24.9599C5.89025 24.8094 4.37353 24.4022 3.52418 23.654L3.25977 23.9541L2.99535 24.2542C4.04152 25.1759 5.77397 25.6016 7.26503 25.7557C8.02252 25.834 8.74448 25.8449 9.32703 25.8067C9.61795 25.7876 9.88032 25.7559 10.0983 25.7121C10.3035 25.671 10.5128 25.6112 10.6651 25.5135L10.4492 25.1768ZM25.2803 25.1738L25.5447 25.474C26.7705 24.3941 28.2191 24.0063 29.4985 23.9411C30.7849 23.8756 31.8679 24.1385 32.3186 24.321L32.4688 23.9502L32.6189 23.5794C32.0563 23.3516 30.8566 23.0709 29.4578 23.1421C28.052 23.2137 26.413 23.6429 25.0159 24.8737L25.2803 25.1738ZM32.4688 23.9502L32.2044 23.65C31.355 24.3981 29.8387 24.8055 28.3821 24.9563C27.6657 25.0305 26.9891 25.0401 26.455 25.0052C26.1876 24.9877 25.9622 24.9595 25.7887 24.9247C25.6024 24.8874 25.5166 24.8501 25.4959 24.8369L25.2803 25.1738L25.0646 25.5107C25.217 25.6083 25.4263 25.668 25.6316 25.7091C25.8496 25.7528 26.1119 25.7844 26.4028 25.8035C26.9854 25.8415 27.7072 25.8305 28.4645 25.7521C29.9552 25.5977 31.6871 25.1717 32.7331 24.2504L32.4688 23.9502ZM7.77051 19.0449L7.59161 19.4027C8.02638 19.6201 8.93952 20.2589 9.7408 21.2674C10.5377 22.2704 11.2044 23.6136 11.2045 25.2471L11.6045 25.2471L12.0045 25.247C12.0044 23.3852 11.2428 21.8718 10.3672 20.7697C9.49591 19.6732 8.49218 18.9586 7.94941 18.6872L7.77051 19.0449ZM11.6045 25.2471L11.7146 24.8625C11.6911 24.8558 11.6064 24.816 11.4553 24.701C11.3145 24.5938 11.1443 24.4434 10.9545 24.2543C10.5752 23.8767 10.135 23.3627 9.71708 22.7762C8.86725 21.5836 8.17051 20.1767 8.17051 19.0449H7.77051H7.37051C7.37051 20.4389 8.19586 22.02 9.06557 23.2405C9.5074 23.8605 9.97634 24.4094 10.39 24.8212C10.5966 25.0269 10.7938 25.2028 10.9707 25.3375C11.1372 25.4643 11.3204 25.5818 11.4944 25.6316L11.6045 25.2471ZM27.959 19.0449H27.559C27.559 20.1766 26.8623 21.5834 26.0125 22.776C25.5946 23.3625 25.1544 23.8765 24.7751 24.2541C24.5853 24.4432 24.415 24.5937 24.2743 24.7009C24.1231 24.816 24.0384 24.8558 24.0147 24.8626L24.125 25.2471L24.2353 25.6316C24.4092 25.5817 24.5924 25.4642 24.7589 25.3374C24.9358 25.2027 25.133 25.0267 25.3396 24.821C25.7533 24.4091 26.2222 23.8603 26.664 23.2403C27.5337 22.0198 28.359 20.4388 28.359 19.0449H27.959ZM24.125 25.2471L24.525 25.2471C24.5251 23.6135 25.1918 22.2702 25.9887 21.2673C26.79 20.2588 27.7032 19.62 28.1379 19.4027L27.959 19.0449L27.7801 18.6871C27.2374 18.9585 26.2337 19.6731 25.3624 20.7696C24.4867 21.8717 23.7251 23.3851 23.725 25.247L24.125 25.2471ZM3.25977 19.8936L3.26379 20.2935C3.74976 20.2887 4.85398 20.4405 6.02736 20.9725C7.19433 21.5015 8.40064 22.3928 9.14601 23.8466L9.50195 23.6641L9.85789 23.4816C9.00833 21.8246 7.6399 20.8252 6.35768 20.2439C5.08188 19.6655 3.86248 19.4875 3.25575 19.4936L3.25977 19.8936ZM9.50195 23.6641L9.4244 23.2717C9.40052 23.2764 9.3071 23.2797 9.1201 23.2462C8.94596 23.2151 8.72584 23.1588 8.47059 23.0772C7.96078 22.9142 7.33446 22.6576 6.69485 22.3263C5.39425 21.6526 4.13208 20.7183 3.61571 19.7111L3.25977 19.8936L2.90382 20.076C3.53983 21.3166 4.99591 22.3472 6.32689 23.0366C7.00307 23.3869 7.67087 23.6614 8.22694 23.8392C8.50464 23.928 8.76039 23.9946 8.97926 24.0337C9.18526 24.0706 9.40197 24.0916 9.57951 24.0565L9.50195 23.6641ZM32.4688 19.8936L32.1128 19.7111C31.5965 20.7182 30.3346 21.6525 29.0343 22.3261C28.3948 22.6574 27.7687 22.914 27.2589 23.0771C27.0037 23.1587 26.7836 23.215 26.6094 23.2461C26.4224 23.2796 26.3289 23.2764 26.3049 23.2716L26.2275 23.6641L26.1501 24.0565C26.3277 24.0915 26.5443 24.0705 26.7504 24.0336C26.9692 23.9945 27.225 23.9279 27.5026 23.839C28.0586 23.6612 28.7263 23.3867 29.4023 23.0364C30.733 22.347 32.1887 21.3165 32.8247 20.076L32.4688 19.8936ZM26.2275 23.6641L26.5835 23.8466C27.3288 22.393 28.5348 21.5017 29.7015 20.9727C30.8746 20.4407 31.9786 20.2887 32.4648 20.2935L32.4688 19.8936L32.4727 19.4936C31.8658 19.4876 30.6466 19.6657 29.3711 20.2441C28.0891 20.8254 26.7211 21.8248 25.8716 23.4816L26.2275 23.6641ZM5.75098 15.5518L5.4414 15.8051C6.17565 16.7025 6.84093 18.2728 5.97119 20.2689L6.33789 20.4287L6.70459 20.5885C7.72208 18.2533 6.93605 16.3685 6.06056 15.2985L5.75098 15.5518ZM6.33789 20.4287L6.59263 20.1203C6.60259 20.1285 6.57267 20.1026 6.51495 19.994C6.46356 19.8973 6.40544 19.7647 6.34542 19.6003C6.22566 19.2723 6.10737 18.8425 6.02179 18.3727C5.84671 17.4114 5.8264 16.3803 6.1177 15.7115L5.75098 15.5518L5.38425 15.392C4.99403 16.288 5.05304 17.5184 5.23474 18.516C5.32755 19.0256 5.45701 19.4996 5.59393 19.8747C5.66225 20.0618 5.73471 20.2306 5.80857 20.3695C5.87611 20.4966 5.96613 20.6404 6.08315 20.7371L6.33789 20.4287ZM30.0918 15.8057L29.7251 15.9654C29.9938 16.5821 29.9761 17.5383 29.8129 18.4346C29.7332 18.872 29.6231 19.2717 29.5119 19.5763C29.4562 19.729 29.4024 19.8515 29.3552 19.9403C29.3016 20.041 29.2758 20.0611 29.2896 20.0497L29.5439 20.3584L29.7983 20.6671C29.912 20.5734 29.9981 20.4351 30.0615 20.316C30.1312 20.1849 30.1993 20.0262 30.2634 19.8507C30.3918 19.499 30.513 19.055 30.5999 18.5779C30.7698 17.6453 30.8262 16.4898 30.4585 15.6459L30.0918 15.8057ZM29.5439 20.3584L29.9106 20.1986C29.1038 18.3468 29.7208 16.8907 30.4014 16.059L30.0918 15.8057L29.7822 15.5524C28.9603 16.5568 28.2226 18.3273 29.1772 20.5182L29.5439 20.3584ZM1 15.7412L0.937841 16.1364C2.41101 16.3681 4.39538 17.3066 5.2695 19.9601L5.64941 19.835L6.02933 19.7098C5.0395 16.705 2.75564 15.6125 1.06216 15.3461L1 15.7412ZM5.64941 19.835L5.63366 19.4353C5.60457 19.4364 5.52331 19.4292 5.38226 19.3924C5.24838 19.3574 5.08194 19.3014 4.89169 19.2227C4.51128 19.0653 4.05168 18.8236 3.58781 18.4985C2.65474 17.8444 1.74459 16.8818 1.38439 15.6306L1 15.7412L0.615611 15.8519C1.04428 17.3409 2.10907 18.4389 3.12861 19.1536C3.64104 19.5128 4.15216 19.7825 4.58584 19.9619C4.80263 20.0516 5.00407 20.1204 5.18003 20.1664C5.34883 20.2105 5.51937 20.2404 5.66517 20.2346L5.64941 19.835ZM34.7256 15.7412L34.3412 15.6305C33.9809 16.8819 33.0707 17.8446 32.1376 18.4987C31.6737 18.8238 31.2141 19.0655 30.8337 19.2228C30.6435 19.3015 30.4771 19.3575 30.3432 19.3924C30.2022 19.4293 30.1211 19.4364 30.0921 19.4353L30.0762 19.835L30.0602 20.2346C30.2061 20.2405 30.3766 20.2106 30.5454 20.1665C30.7213 20.1205 30.9228 20.0517 31.1395 19.9621C31.5732 19.7827 32.0843 19.513 32.5968 19.1538C33.6163 18.4391 34.6812 17.341 35.11 15.8519L34.7256 15.7412ZM30.0762 19.835L30.4561 19.9601C31.3301 17.3067 33.3146 16.3682 34.7878 16.1363L34.7256 15.7412L34.6634 15.3461C32.97 15.6126 30.686 16.7051 29.6963 19.7098L30.0762 19.835ZM1.90723 11.8467L1.7267 12.2036C3.0575 12.8767 4.65771 14.3793 4.67423 17.1733L5.07422 17.1709L5.47421 17.1685C5.45551 14.0047 3.61757 12.2635 2.08775 11.4897L1.90723 11.8467ZM5.07422 17.1709L5.18201 16.7857C5.15398 16.7779 5.07886 16.746 4.95595 16.6676C4.83928 16.5932 4.69809 16.4888 4.54122 16.3554C4.22755 16.0888 3.8644 15.7176 3.52285 15.2656C2.83582 14.3565 2.26542 13.1608 2.30702 11.8595L1.90723 11.8467L1.50743 11.8339C1.45792 13.3826 2.13391 14.7546 2.88461 15.748C3.26191 16.2472 3.66546 16.6609 4.02305 16.9649C4.2018 17.1169 4.37238 17.2443 4.52571 17.3421C4.6728 17.4359 4.82591 17.5168 4.96643 17.5561L5.07422 17.1709ZM33.8184 11.8467L33.4186 11.8595C33.4602 13.1609 32.8897 14.3568 32.2026 15.2659C31.8611 15.7178 31.4979 16.089 31.1843 16.3556C31.0274 16.4889 30.8862 16.5933 30.7696 16.6677C30.6467 16.7461 30.5716 16.7779 30.5437 16.7857L30.6514 17.1709L30.759 17.5561C30.8996 17.5169 31.0527 17.436 31.1998 17.3422C31.3531 17.2444 31.5237 17.1171 31.7024 16.9651C32.06 16.6612 32.4636 16.2475 32.8409 15.7482C33.5916 14.7549 34.2677 13.3827 34.2182 11.8339L33.8184 11.8467ZM30.6514 17.1709L31.0514 17.1733C31.0679 14.3793 32.6681 12.8767 33.9989 12.2036L33.8184 11.8467L33.6378 11.4897C32.108 12.2635 30.2701 14.0047 30.2514 17.1685L30.6514 17.1709ZM7.15625 9.57227L6.76559 9.65822C7.086 11.1145 6.93401 13.3042 4.78032 15.0843L5.03516 15.3926L5.28999 15.7009C7.7287 13.6852 7.91526 11.1606 7.54691 9.48632L7.15625 9.57227ZM5.03516 15.3926L5.40175 15.2325C5.39006 15.2058 5.36721 15.1274 5.35021 14.9826C5.33408 14.8451 5.32566 14.6697 5.32975 14.4639C5.33794 14.0523 5.39578 13.5363 5.52985 12.9859C5.79952 11.8789 6.36497 10.6809 7.39922 9.89001L7.15625 9.57227L6.91328 9.25452C5.68245 10.1957 5.04724 11.5869 4.75258 12.7965C4.60448 13.4045 4.53924 13.9787 4.52991 14.448C4.52524 14.6825 4.53446 14.8952 4.55567 15.0759C4.57601 15.2492 4.61019 15.4189 4.66856 15.5526L5.03516 15.3926ZM28.5762 9.57227L28.3332 9.89001C29.3675 10.6809 29.933 11.8789 30.2026 12.986C30.3367 13.5364 30.3945 14.0524 30.4027 14.464C30.4068 14.6698 30.3984 14.8452 30.3822 14.9826C30.3652 15.1274 30.3424 15.2058 30.3307 15.2325L30.6973 15.3926L31.0638 15.5527C31.1222 15.419 31.1564 15.2492 31.1768 15.0759C31.198 14.8953 31.2072 14.6826 31.2025 14.4481C31.1932 13.9788 31.128 13.4046 30.9799 12.7967C30.6852 11.587 30.05 10.1957 28.8191 9.25452L28.5762 9.57227ZM30.6973 15.3926L30.9521 15.0843C28.7985 13.3042 28.6464 11.1145 28.9668 9.65822L28.5762 9.57227L28.1855 9.48632C27.8172 11.1605 28.0038 13.6853 30.4424 15.7009L30.6973 15.3926ZM2.01074 7.54297L1.76423 7.85798C2.97306 8.80397 4.39874 10.3936 3.87769 13.1052L4.27051 13.1807L4.66332 13.2561C5.26644 10.1174 3.57281 8.25747 2.25726 7.22796L2.01074 7.54297ZM4.27051 13.1807L4.45101 12.8237C4.3644 12.7799 4.14574 12.6087 3.86179 12.2908C3.58884 11.9852 3.28315 11.5749 3.01479 11.0912C2.47519 10.1186 2.10871 8.8918 2.40041 7.63329L2.01074 7.54297L1.62107 7.45265C1.26884 8.97231 1.72005 10.4065 2.31524 11.4793C2.61426 12.0183 2.95523 12.4767 3.26513 12.8237C3.56404 13.1584 3.86443 13.4236 4.09001 13.5376L4.27051 13.1807ZM33.7119 7.54297L33.3222 7.63329C33.6139 8.8918 33.2475 10.1186 32.7079 11.0912C32.4395 11.5749 32.1338 11.9852 31.8609 12.2908C31.5769 12.6087 31.3583 12.7799 31.2717 12.8237L31.4521 13.1807L31.6326 13.5376C31.8582 13.4236 32.1586 13.1584 32.4575 12.8237C32.7674 12.4767 33.1084 12.0183 33.4074 11.4793C34.0026 10.4065 34.4538 8.97231 34.1016 7.45265L33.7119 7.54297ZM31.4521 13.1807L31.845 13.1052C31.3239 10.3936 32.7496 8.80397 33.9584 7.85798L33.7119 7.54297L33.4654 7.22796C32.1498 8.25747 30.4562 10.1174 31.0593 13.2561L31.4521 13.1807ZM30.8164 5.83691L30.5017 6.08377C31.1188 6.87064 31.267 7.85492 31.2068 8.72552C31.1769 9.15788 31.0961 9.55038 31.0041 9.857C30.9073 10.1794 30.811 10.3641 30.7732 10.4123L31.0879 10.6592L31.4026 10.9061C31.5365 10.7354 31.6671 10.4309 31.7703 10.087C31.8783 9.72722 31.9706 9.27613 32.0049 8.78071C32.073 7.79577 31.9137 6.5878 31.1311 5.59006L30.8164 5.83691ZM31.0879 10.6592L31.4355 10.4613C30.4718 8.76852 30.873 7.02928 31.1992 5.95294L30.8164 5.83691L30.4336 5.72089C30.0975 6.82984 29.6016 8.85706 30.7403 10.8571L31.0879 10.6592ZM4.91992 5.81152L4.53712 5.92755C4.86457 7.00791 5.2668 8.75438 4.29888 10.4544L4.64648 10.6523L4.99409 10.8503C6.13687 8.8431 5.64017 6.80883 5.30272 5.6955L4.91992 5.81152ZM4.64648 10.6523L4.96142 10.4057C4.92309 10.3568 4.82632 10.1708 4.72928 9.84713C4.63695 9.53914 4.55596 9.145 4.52606 8.7109C4.46586 7.8368 4.61485 6.84852 5.23465 6.0584L4.91992 5.81152L4.6052 5.56465C3.82006 6.56555 3.65987 7.77743 3.72795 8.76587C3.76219 9.26302 3.85471 9.71574 3.96297 10.0769C4.06651 10.4222 4.19742 10.7277 4.33155 10.899L4.64648 10.6523ZM10.3086 5.5166L9.94959 5.3402C9.32399 6.61336 8.18396 8.5922 5.80183 9.33493L5.9209 9.7168L6.03996 10.0987C8.75965 9.25068 10.027 6.99669 10.6676 5.69301L10.3086 5.5166ZM5.9209 9.7168L6.31943 9.75106C6.32774 9.65439 6.40498 9.38768 6.594 9.00563C6.7757 8.63837 7.04233 8.20167 7.39101 7.77221C8.09208 6.90869 9.09363 6.11088 10.3702 5.91183L10.3086 5.5166L10.247 5.12138C8.70555 5.36173 7.54322 6.31549 6.76993 7.26797C6.38142 7.7465 6.08325 8.2339 5.87696 8.65087C5.67798 9.05305 5.54402 9.43068 5.52237 9.68253L5.9209 9.7168ZM25.4277 5.5166L25.3661 5.91182C26.6426 6.11096 27.6441 6.90879 28.3453 7.7723C28.6939 8.20176 28.9606 8.63844 29.1423 9.00568C29.3314 9.38772 29.4086 9.65441 29.4169 9.75106L29.8154 9.7168L30.214 9.68253C30.1923 9.43068 30.0583 9.05304 29.8593 8.65089C29.653 8.23393 29.3548 7.74655 28.9663 7.26804C28.193 6.3156 27.0307 5.36183 25.4894 5.12138L25.4277 5.5166ZM29.8154 9.7168L29.9345 9.33492C27.5523 8.59224 26.4124 6.6134 25.7867 5.3402L25.4277 5.5166L25.0687 5.69301C25.7093 6.99671 26.9766 9.25074 29.6964 10.0987L29.8154 9.7168ZM7.14355 1.46094L6.79999 1.66579C7.1107 2.18689 7.2937 3.10604 7.18001 4.17986C7.06753 5.24215 6.66867 6.40869 5.87551 7.41326L6.18945 7.66113L6.5034 7.909C7.40191 6.77099 7.8493 5.45664 7.97556 4.26409C8.1006 3.08306 7.91482 1.97341 7.48712 1.25609L7.14355 1.46094ZM6.18945 7.66113L6.51652 7.43086C6.50121 7.40911 6.46384 7.33796 6.41909 7.19727C6.37678 7.06421 6.33485 6.89141 6.29942 6.68541C6.2286 6.27357 6.18683 5.74692 6.213 5.17105C6.26568 4.01204 6.59037 2.70607 7.44532 1.7235L7.14355 1.46094L6.84179 1.19837C5.8251 2.36685 5.4711 3.87459 5.41383 5.13472C5.38503 5.76842 5.43046 6.3527 5.51099 6.82099C5.55124 7.05506 5.60103 7.26463 5.65672 7.43972C5.70997 7.60717 5.77688 7.76996 5.86238 7.8914L6.18945 7.66113ZM28.583 1.46094L28.2812 1.7235C29.1362 2.70611 29.4607 4.01213 29.5131 5.17115C29.5392 5.74704 29.4973 6.27368 29.4263 6.68549C29.3909 6.89148 29.3489 7.06426 29.3066 7.19729C29.2618 7.33797 29.2244 7.40907 29.2091 7.43076L29.5361 7.66113L29.8631 7.8915C29.9487 7.77009 30.0156 7.60733 30.0689 7.43992C30.1246 7.26485 30.1744 7.0553 30.2147 6.82126C30.2954 6.35299 30.341 5.76871 30.3123 5.135C30.2553 3.87483 29.9015 2.36696 28.8848 1.19838L28.583 1.46094ZM29.5361 7.66113L29.8501 7.41326C29.057 6.40871 28.6583 5.24221 28.5461 4.17992C28.4326 3.10613 28.6158 2.18693 28.9266 1.6658L28.583 1.46094L28.2394 1.25608C27.8118 1.97333 27.6257 3.08293 27.7505 4.26399C27.8765 5.45655 28.3237 6.77095 29.2222 7.909L29.5361 7.66113ZM11.1465 1L10.7473 1.02624C10.7871 1.63163 10.5324 2.53356 9.94305 3.43835C9.36007 4.33344 8.47464 5.19118 7.31156 5.72537L7.47852 6.08887L7.64547 6.45236C8.96308 5.84719 9.95893 4.87981 10.6134 3.87496C11.2616 2.87982 11.6004 1.80701 11.5456 0.973757L11.1465 1ZM7.47852 6.08887L7.87448 6.03216C7.87073 6.00604 7.86973 5.92585 7.89378 5.78023C7.91653 5.64256 7.95768 5.46963 8.01972 5.27006C8.14375 4.87109 8.34586 4.383 8.63089 3.88192C9.20455 2.87344 10.0874 1.85762 11.2959 1.37105L11.1465 1L10.9971 0.628947C9.55997 1.20758 8.55926 2.38987 7.93553 3.48637C7.62186 4.03777 7.39682 4.57889 7.25578 5.03257C7.18529 5.25934 7.13442 5.46861 7.10448 5.64983C7.07585 5.82312 7.0615 5.99854 7.08256 6.14558L7.47852 6.08887ZM24.583 1L24.4336 1.37105C25.642 1.85762 26.5249 2.87343 27.0986 3.8819C27.3836 4.38298 27.5857 4.87107 27.7097 5.27005C27.7718 5.46961 27.8129 5.64254 27.8357 5.78022C27.8598 5.92584 27.8588 6.00605 27.855 6.03218L28.251 6.08887L28.6469 6.14555C28.668 5.99851 28.6536 5.82309 28.625 5.64981C28.595 5.46857 28.5442 5.2593 28.4737 5.03254C28.3326 4.57885 28.1076 4.03774 27.7939 3.48634C27.1702 2.38986 26.1695 1.20759 24.7324 0.62895L24.583 1ZM28.251 6.08887L28.4179 5.72537C27.2548 5.19119 26.3694 4.33346 25.7864 3.43838C25.1971 2.5336 24.9423 1.63166 24.9821 1.02625L24.583 1L24.1839 0.973755C24.1291 1.80701 24.4679 2.87983 25.116 3.87499C25.7705 4.87984 26.7664 5.84721 28.084 6.45237L28.251 6.08887Z" fill="#00F7A5" mask="url(#path-1-outside-1_3613_1585)"/>
<path d="M17.4131 14.2759L20.165 15.1353L20.2305 15.1558L20.2695 15.2114L22.0371 17.7339L22.041 17.7397L23.8838 20.5806L23.9805 20.731L23.8428 20.8442L22.4424 21.9917L22.4043 22.0229L22.3564 22.0327L18.2051 22.9048L18.165 22.9126L18.125 22.9048L12.8457 21.8569L12.7344 21.8345L12.6963 21.728L12.126 20.147L12.0977 20.0688L12.1328 19.9937L12.6064 18.9907L12.624 18.9517L12.6562 18.9243L14.9277 16.9644L17.2021 14.3364L17.2881 14.2368L17.4131 14.2759ZM12.875 12.7925L14.7598 15.4829L14.8516 15.6138L14.7432 15.7319L12.8594 17.7954L12.7227 17.9448L12.5752 17.8062L10.3828 15.7612L10.3369 15.7183L10.3242 15.6567L9.89258 13.6646L9.85254 13.479L10.0352 13.4292L12.6592 12.7144L12.7939 12.6772L12.875 12.7925ZM23.6602 12.1567L25.3135 12.937L25.3896 12.9722L25.418 13.0522L25.9238 14.5142L25.9521 14.5942L25.9131 14.6704L24.3145 17.812L24.2549 17.9292L24.123 17.9204L23.1963 17.8599L23.1035 17.854L23.0479 17.7778L21.3467 15.4438L21.2627 15.3286L21.3438 15.2124L23.4111 12.2241L23.5068 12.0845L23.6602 12.1567ZM21.2412 7.96631L22.5996 10.2896L22.6406 10.3599L22.6211 10.438L22 12.9663L21.9824 13.0386L21.9209 13.0815L20.9717 13.7466L20.8945 13.8003L20.8047 13.7759L19.3086 13.3726L19.2168 13.3472L19.1787 13.2603L18.2393 11.1509L18.2119 11.0894L18.2266 11.0249L18.8359 8.33643L18.8662 8.20361L19.001 8.18311L21.0381 7.86963L21.1729 7.84912L21.2412 7.96631ZM14.0762 8.43408L16.6328 8.84717L16.75 8.8667L16.7891 8.97803L17.4971 10.9868L17.5078 11.0181V11.0513L17.5254 12.4077L17.5264 12.4751L17.4863 12.5298L16.6123 13.7095L16.5459 13.7983L16.4355 13.7896L14.5596 13.6343L14.4482 13.6255L14.3984 13.5259L13.1416 11.0669L13.1055 10.9937L13.1289 10.9165L13.8535 8.57275L13.9053 8.40674L14.0762 8.43408ZM11.2725 10.2622L11.5107 11.0806L11.8242 11.9585L11.8574 12.0522L11.8037 12.1353L11.6572 12.3608L11.6191 12.4194L11.5527 12.4419L10.54 12.7817L10.3984 12.8286L10.3125 12.7065L10.0078 12.272L9.94531 12.1821L9.98633 12.0815L10.6055 10.5688L10.6182 10.5376L10.6406 10.5112L10.9307 10.1851L11.1709 9.91455L11.2725 10.2622ZM24.6914 9.48975L25.1104 9.6792L25.1445 9.69482L25.1719 9.72314L25.8799 10.4556L25.9473 10.5259L25.9336 10.6235L25.7852 11.6333L25.7471 11.8921L25.5078 11.7876L24.3086 11.2642L24.1699 11.2036L24.1904 11.0532L24.2812 10.4106V10.4058H24.2822L24.4121 9.63916L24.4551 9.3833L24.6914 9.48975ZM15.7344 5.14111C15.7395 5.15538 15.7424 5.1719 15.7461 5.18896H15.748C15.777 5.29733 15.8794 5.68333 15.9756 6.07666C16.0237 6.27322 16.0701 6.47353 16.1055 6.64209C16.1392 6.80317 16.1677 6.9549 16.1699 7.04443V7.07568L16.1611 7.10596L16.0146 7.60889L15.9746 7.74756L15.8311 7.75342L14.2109 7.81982L13.9287 7.83154L14.0107 7.56104L14.334 6.50049L14.3428 6.47314L14.3574 6.44971L14.3584 6.44873L14.3594 6.44678C14.3608 6.44457 14.3635 6.44118 14.3662 6.43701C14.3718 6.42846 14.3802 6.41582 14.3906 6.3999C14.4116 6.36796 14.4415 6.32165 14.4785 6.26611C14.5526 6.15515 14.6546 6.00448 14.7656 5.84717C14.8764 5.69032 14.9978 5.52501 15.1104 5.38428C15.2183 5.24936 15.3327 5.11866 15.4277 5.04834L15.6436 4.88818L15.7344 5.14111ZM19.627 4.89111L20.9756 6.81592L21.0693 6.95068L20.9561 7.06885L20.833 7.19873L20.7969 7.23584L20.7471 7.25146L19.5957 7.60986L19.4258 7.66357L19.3535 7.49951L19.0703 6.854L19.0547 6.81982L19.0537 6.78271L19.002 5.60303L19 5.55615L19.0186 5.51318L19.2803 4.92529L19.4238 4.60205L19.627 4.89111Z" stroke="#00F7A5" stroke-width="0.4" stroke-linecap="round"/>
</svg>
